<?xml version="1.0" standalone="no"?>
<!DOCTYPE svg PUBLIC "-//W3C//DTD SVG 20010904//EN"
 "http://www.w3.org/TR/2001/REC-SVG-20010904/DTD/svg10.dtd">
<svg version="1.0" xmlns="http://www.w3.org/2000/svg"
 width="321.000000pt" height="157.000000pt" viewBox="0 0 321.000000 157.000000"
 preserveAspectRatio="xMidYMid meet">
<metadata>
Created by potrace 1.16, written by Peter Selinger 2001-2019
</metadata>
<g transform="translate(0.000000,157.000000) scale(0.100000,-0.100000)"
fill="#000000" stroke="none">
<path d="M883 1319 c-41 -12 -70 -50 -78 -103 -11 -73 9 -119 86 -201 38 -40
74 -87 79 -105 13 -44 -5 -80 -40 -80 -35 0 -50 17 -50 57 0 32 -1 33 -40 33
-39 0 -40 -1 -40 -35 0 -84 49 -135 130 -135 83 0 130 51 130 140 0 62 -22
103 -99 184 -74 78 -86 109 -61 157 21 39 80 12 80 -37 0 -21 4 -24 40 -24 38
0 40 1 40 33 0 44 -34 95 -75 113 -39 16 -56 16 -102 3z"/>
<path d="M1433 1319 c-41 -12 -70 -50 -78 -103 -11 -73 9 -119 85 -200 76 -80
92 -110 81 -153 -6 -21 -14 -29 -36 -31 -34 -4 -55 18 -55 60 0 26 -3 28 -40
28 -39 0 -40 -1 -40 -36 0 -82 51 -134 130 -134 83 0 130 49 130 135 0 67 -21
106 -99 189 -74 78 -86 109 -61 157 21 39 80 12 80 -37 0 -22 4 -24 41 -24
l42 0 -6 46 c-6 54 -35 90 -86 104 -41 11 -45 11 -88 -1z"/>
<path d="M230 1041 l0 -281 48 -1 c80 -2 146 3 165 13 35 18 57 70 57 134 0
73 -15 121 -42 135 -20 11 -19 11 4 36 20 21 23 35 23 104 0 73 -2 81 -28 106
-26 26 -34 28 -127 31 l-100 4 0 -281z m168 -43 c7 -7 12 -40 12 -80 0 -75
-14 -92 -68 -86 -27 3 -27 4 -30 91 l-3 87 39 0 c21 0 43 -5 50 -12z"/>
<path d="M537 1313 c-2 -5 -3 -131 -2 -281 l2 -273 119 -2 119 -2 2 38 2 37
-79 0 -80 0 0 85 0 85 60 0 60 0 0 40 0 40 -60 0 -60 0 0 80 0 80 75 0 c82 0
93 7 81 55 -6 25 -7 25 -121 25 -62 0 -115 -3 -118 -7z"/>
<path d="M1070 1280 l0 -40 45 0 45 0 0 -239 0 -238 30 -6 c61 -13 60 -18 60
244 l0 239 45 0 45 0 0 40 0 40 -135 0 -135 0 0 -40z"/>
<path d="M1649 1303 c0 -10 0 -88 0 -173 0 -85 1 -201 1 -257 l0 -103 121 0
120 0 -3 38 -3 37 -77 3 -78 3 0 74 0 75 60 0 60 0 0 45 0 45 -60 0 -60 0 0
75 0 74 78 3 77 3 0 35 0 35 -117 3 c-107 2 -118 1 -119 -15z"/>
<path d="M1920 1040 l0 -280 74 0 c40 0 94 3 120 6 43 6 46 8 44 35 l-2 29
-73 0 -73 0 0 245 0 245 -45 0 -45 0 0 -280z"/>
<path d="M2180 1045 l0 -275 103 6 c123 7 127 8 127 33 0 18 -8 20 -72 23
l-73 3 -3 243 -2 242 -40 0 -40 0 0 -275z"/>
<path d="M2430 1055 l0 -265 38 0 c101 0 202 13 202 26 0 11 -19 14 -75 14
l-75 0 0 85 0 85 60 0 60 0 0 40 0 40 -60 0 -60 0 0 80 0 80 75 0 75 0 0 40 0
40 -120 0 -120 0 0 -265z"/>
<path d="M2710 1062 c0 -252 1 -261 20 -267 11 -3 25 -15 31 -26 14 -27 38 -8
37 29 0 15 0 65 1 111 l1 84 32 -7 c18 -3 37 -11 43 -17 5 -5 12 -56 15 -112
l5 -102 40 1 40 0 -4 104 c-3 114 -10 143 -38 159 -16 10 -16 12 -2 23 29 24
39 56 39 132 0 69 -2 78 -29 108 -29 33 -31 33 -130 36 l-101 4 0 -260z"/>
<path d="M933 73 c390 -2 1024 -2 1410 0 386 1 68 2 -708 2 -776 0 -1091 -1
-702 -2z"/>
</g>
</svg>
