<?xml version="1.0" standalone="no"?>
<!DOCTYPE svg PUBLIC "-//W3C//DTD SVG 20010904//EN"
 "http://www.w3.org/TR/2001/REC-SVG-20010904/DTD/svg10.dtd">
<svg version="1.0" xmlns="http://www.w3.org/2000/svg"
 width="225.000000pt" height="225.000000pt" viewBox="0 0 225.000000 225.000000"
 preserveAspectRatio="xMidYMid meet">
<metadata>
Created by potrace 1.16, written by Peter Selinger 2001-2019
</metadata>
<g transform="translate(0.000000,225.000000) scale(0.100000,-0.100000)"
fill="#000000" stroke="none">
<path d="M757 1812 c-15 -16 -17 -54 -17 -325 0 -294 1 -308 20 -327 19 -19
33 -20 323 -20 258 0 306 2 325 16 22 15 22 16 22 328 0 290 -1 314 -18 329
-16 15 -54 17 -329 17 -288 0 -311 -1 -326 -18z m493 -323 l0 -170 -27 3 -28
3 -3 138 -3 137 -134 0 -135 0 0 30 0 30 165 0 165 0 0 -171z m-100 -49 l0
-120 -25 0 c-31 0 -38 24 -33 114 l3 66 -87 0 -88 0 0 30 0 30 115 0 115 0 0
-120z m-102 -52 l-3 -63 -62 -3 -63 -3 0 66 0 65 65 0 66 0 -3 -62z"/>
<path d="M368 1054 c-52 -27 -79 -117 -59 -191 15 -56 60 -93 112 -93 38 0 39
1 39 35 0 31 -3 35 -25 35 -30 0 -45 26 -45 80 0 53 15 80 44 80 19 0 25 6 28
30 6 42 -39 54 -94 24z"/>
<path d="M490 915 l0 -145 40 0 40 0 0 60 c0 53 2 60 20 60 18 0 20 -7 20 -60
l0 -60 40 0 40 0 0 145 0 145 -40 0 -40 0 0 -50 c0 -43 -3 -50 -20 -50 -17 0
-20 7 -20 50 l0 50 -40 0 -40 0 0 -145z"/>
<path d="M728 915 l3 -145 35 0 34 0 0 145 0 145 -37 0 -38 0 3 -145z"/>
<path d="M830 1025 c0 -31 3 -35 25 -35 l25 0 0 -111 0 -110 38 3 37 3 3 108
c2 99 4 107 22 107 16 0 20 7 20 35 l0 35 -85 0 -85 0 0 -35z"/>
<path d="M1020 915 l0 -145 40 0 39 0 3 63 3 62 21 -60 21 -60 76 -3 c72 -3
76 -2 79 20 5 34 45 37 54 4 5 -22 12 -26 40 -26 42 0 42 2 6 165 l-27 120
-46 3 -47 3 -17 -78 c-9 -43 -23 -102 -29 -132 l-12 -55 -27 66 -26 67 28 63
29 63 -30 3 c-45 5 -51 -1 -73 -59 l-20 -54 -3 58 -3 57 -39 0 -40 0 0 -145z"/>
<path d="M1450 915 l0 -145 39 0 40 0 3 53 3 52 15 -50 16 -50 81 -3 c78 -3
82 -2 85 20 4 32 52 33 56 1 3 -20 10 -23 44 -23 37 0 40 2 34 23 -3 12 -18
77 -32 145 l-27 122 -46 0 -47 0 -29 -140 c-16 -76 -33 -136 -36 -132 -4 4
-17 31 -29 60 l-23 53 22 15 c16 12 21 25 21 59 0 64 -30 85 -121 85 l-69 0 0
-145z"/>
</g>
</svg>
