<?xml version="1.0" standalone="no"?>
<!DOCTYPE svg PUBLIC "-//W3C//DTD SVG 20010904//EN"
 "http://www.w3.org/TR/2001/REC-SVG-20010904/DTD/svg10.dtd">
<svg version="1.0" xmlns="http://www.w3.org/2000/svg"
 width="225.000000pt" height="225.000000pt" viewBox="0 0 225.000000 225.000000"
 preserveAspectRatio="xMidYMid meet">
<metadata>
Created by potrace 1.16, written by Peter Selinger 2001-2019
</metadata>
<g transform="translate(0.000000,225.000000) scale(0.100000,-0.100000)"
fill="#000000" stroke="none">
<path d="M762 1824 c-22 -15 -22 -16 -22 -328 0 -254 3 -316 14 -332 14 -18
29 -19 331 -19 302 0 317 1 331 19 11 16 14 78 14 332 0 312 0 313 -22 328
-19 14 -67 16 -323 16 -256 0 -304 -2 -323 -16z m488 -324 l0 -170 -30 0 -30
0 0 140 0 140 -135 0 -135 0 0 30 0 30 165 0 165 0 0 -170z m-100 -55 l0 -115
-30 0 -30 0 0 85 0 85 -85 0 -85 0 0 30 0 30 115 0 115 0 0 -115z m-102 -52
l3 -63 -66 0 -65 0 0 59 c0 68 3 71 75 68 l50 -2 3 -62z"/>
<path d="M362 1057 c-35 -16 -62 -78 -62 -139 0 -88 54 -153 122 -146 30 3 33
6 36 40 3 31 0 36 -15 32 -29 -8 -54 18 -60 64 -7 52 16 92 52 92 22 0 25 4
25 35 0 34 -1 35 -37 34 -21 0 -48 -5 -61 -12z"/>
<path d="M490 925 l0 -145 40 0 40 0 0 56 c0 47 3 55 18 52 13 -2 18 -15 20
-56 l3 -52 35 0 34 0 0 145 0 145 -34 0 -35 0 -3 -52 c-2 -41 -7 -54 -20 -56
-15 -3 -18 5 -18 52 l0 56 -40 0 -40 0 0 -145z"/>
<path d="M720 925 l0 -145 40 0 40 0 0 145 0 145 -40 0 -40 0 0 -145z"/>
<path d="M830 1030 c0 -33 3 -40 20 -40 19 0 20 -7 20 -105 l0 -105 40 0 40 0
0 105 0 105 25 0 c23 0 25 4 25 40 l0 40 -85 0 -85 0 0 -40z"/>
<path d="M1020 925 l0 -145 40 0 40 0 1 63 1 62 21 -62 21 -63 78 0 c71 0 78
2 78 20 0 15 7 20 26 20 17 0 28 -6 31 -20 4 -15 14 -20 42 -20 l38 0 -31 143
-32 142 -45 3 -45 3 -29 -131 c-15 -72 -31 -127 -35 -123 -4 4 -16 32 -28 61
l-22 54 30 65 c17 36 30 68 30 70 0 2 -19 3 -42 1 -41 -3 -42 -4 -62 -63 l-21
-60 -3 63 -3 62 -39 0 -40 0 0 -145z"/>
<path d="M1450 925 l0 -145 40 0 40 0 1 53 1 52 17 -50 c17 -48 19 -50 59 -53
23 -2 42 -1 42 1 0 3 -11 30 -25 62 -26 57 -26 58 -6 71 28 20 35 66 17 103
-18 34 -63 51 -138 51 l-48 0 0 -145z"/>
<path d="M1715 1048 c-21 -91 -55 -249 -55 -257 0 -6 16 -11 36 -11 27 0 37 5
41 20 3 13 14 20 29 20 17 0 24 -6 24 -20 0 -17 7 -20 40 -20 22 0 40 1 40 3
0 2 -13 65 -30 140 -16 76 -30 140 -30 142 0 3 -20 5 -45 5 -38 0 -45 -3 -50
-22z"/>
</g>
</svg>
