<?xml version="1.0" standalone="no"?>
<!DOCTYPE svg PUBLIC "-//W3C//DTD SVG 20010904//EN"
 "http://www.w3.org/TR/2001/REC-SVG-20010904/DTD/svg10.dtd">
<svg version="1.0" xmlns="http://www.w3.org/2000/svg"
 width="300.000000pt" height="168.000000pt" viewBox="0 0 300.000000 168.000000"
 preserveAspectRatio="xMidYMid meet">
<metadata>
Created by potrace 1.16, written by Peter Selinger 2001-2019
</metadata>
<g transform="translate(0.000000,168.000000) scale(0.100000,-0.100000)"
fill="#000000" stroke="none">
<path d="M506 1650 c3 -57 4 -61 16 -54 7 4 8 3 4 -4 -4 -6 -1 -20 6 -31 15
-25 1 -54 -56 -111 -85 -87 -199 -113 -323 -74 -34 11 -73 33 -104 62 l-49 44
0 -741 0 -741 1500 0 1500 0 0 840 0 840 -688 0 -689 0 -31 -39 c-18 -23 -56
-51 -89 -68 -78 -37 -192 -40 -268 -5 -63 29 -84 51 -74 77 11 28 10 35 -1 35
-5 0 -10 -9 -10 -20 0 -33 -55 -132 -95 -172 -79 -79 -208 -108 -320 -73 -97
31 -192 135 -211 233 -8 40 -19 41 -18 2z m2084 -364 c0 -71 2 -69 -91 -81
l-36 -5 -7 47 c-11 80 -11 79 47 90 92 18 87 21 87 -51z m-326 -190 c-3 -7 3
-19 13 -27 16 -13 17 -12 4 4 -8 9 -11 20 -8 23 9 10 46 -38 63 -83 l17 -43
148 0 c142 0 197 -11 124 -24 -38 -8 -48 -17 -39 -40 5 -14 8 -14 30 0 27 18
68 12 97 -14 22 -20 3 -36 -26 -21 -13 7 -23 7 -33 -2 -18 -15 -18 -28 3 -51
24 -27 53 -23 53 6 0 29 19 44 31 25 26 -41 -2 -92 -51 -92 -25 0 -41 8 -67
36 -19 22 -33 31 -33 22 0 -26 -18 -16 -29 17 -14 41 -23 32 -11 -12 11 -38
54 -88 88 -101 21 -8 22 -14 22 -119 l0 -110 -408 0 -408 0 4 195 4 196 -43
-3 c-53 -4 -62 16 -28 62 27 35 38 37 72 10 l25 -20 31 35 c32 37 51 45 51 20
0 -12 17 -15 93 -15 l92 0 17 48 c10 26 32 64 49 86 30 35 34 37 45 21 7 -9
10 -23 8 -29z m424 -673 l-3 -48 -168 -3 -169 -2 7 -43 c12 -72 30 -97 71 -97
21 0 33 -4 29 -10 -8 -14 -405 -14 -405 0 0 6 13 10 30 10 37 0 57 29 66 93
l7 47 -166 0 -165 0 -4 46 c-2 25 -1 47 1 50 2 2 200 4 438 4 l434 0 -3 -47z"/>
</g>
</svg>
