<?xml version="1.0" standalone="no"?>
<!DOCTYPE svg PUBLIC "-//W3C//DTD SVG 20010904//EN"
 "http://www.w3.org/TR/2001/REC-SVG-20010904/DTD/svg10.dtd">
<svg version="1.0" xmlns="http://www.w3.org/2000/svg"
 width="224.000000pt" height="224.000000pt" viewBox="0 0 224.000000 224.000000"
 preserveAspectRatio="xMidYMid meet">
<metadata>
Created by potrace 1.16, written by Peter Selinger 2001-2019
</metadata>
<g transform="translate(0.000000,224.000000) scale(0.100000,-0.100000)"
fill="#000000" stroke="none">
<path d="M0 1120 l0 -1120 1120 0 1120 0 0 1120 0 1120 -1120 0 -1120 0 0
-1120z m630 395 l0 -55 -115 0 -115 0 0 -70 0 -70 85 0 85 0 0 -57 0 -58 -85
3 -85 3 0 -99 0 -100 36 11 c74 22 176 -31 210 -110 9 -21 14 -71 14 -143 l0
-110 -305 0 -305 0 0 111 c0 130 13 166 73 210 34 25 49 29 104 29 l63 0 0
280 0 280 170 0 170 0 0 -55z m250 25 l0 -30 -60 0 -60 0 0 -40 0 -40 45 0
c43 0 45 -1 45 -30 0 -29 -2 -30 -45 -30 l-45 0 0 -70 0 -70 -30 0 -30 0 0
170 0 170 90 0 90 0 0 -30z m90 -140 l0 -170 -30 0 -30 0 0 170 0 170 30 0 30
0 0 -170z m220 140 c0 -28 -3 -30 -36 -30 -34 0 -35 -2 -34 -32 1 -18 2 -81 1
-140 l-1 -108 -30 0 -30 0 0 140 0 140 -30 0 c-27 0 -30 3 -30 30 l0 30 95 0
95 0 0 -30z m270 -137 l0 -168 -90 90 -90 90 0 -88 0 -87 -30 0 -30 0 0 162 0
163 90 -90 90 -90 0 93 0 92 30 0 30 0 0 -167z m210 137 l0 -30 -60 0 -60 0 0
-40 0 -40 45 0 c43 0 45 -1 45 -30 0 -29 -2 -30 -45 -30 -45 0 -45 0 -45 -35
l0 -35 60 0 60 0 0 -35 0 -35 -90 0 -90 0 0 170 0 170 90 0 90 0 0 -30z m200
15 c34 -18 39 -40 11 -55 -14 -7 -27 -7 -45 1 -20 9 -29 9 -41 -1 -27 -22 -16
-40 39 -64 81 -36 105 -90 66 -153 -34 -57 -121 -61 -167 -8 -30 34 -29 51 3
59 20 5 30 2 41 -14 22 -32 67 -24 71 13 3 24 -2 29 -45 48 -58 24 -82 53 -83
97 0 24 8 42 29 63 34 33 75 38 121 14z m239 0 c39 -20 45 -40 15 -54 -18 -8
-31 -8 -49 1 -21 9 -29 9 -41 -3 -22 -23 -8 -45 40 -63 54 -21 75 -44 82 -87
15 -99 -116 -151 -183 -74 -30 34 -29 51 3 59 20 5 30 2 41 -14 17 -25 59 -26
72 -2 14 26 -3 47 -54 66 -77 30 -99 104 -46 157 33 33 75 38 120 14z m-862
-390 c1 -17 0 -24 -3 -17 -8 17 -21 15 -28 -4 -3 -9 3 -27 14 -41 36 -46 20
-122 -31 -149 -45 -23 -78 -17 -115 20 -38 38 -43 70 -19 116 19 37 43 50 94
50 23 0 41 2 41 4 0 2 3 12 6 20 5 12 2 15 -12 10 -17 -5 -17 -4 1 10 28 24
50 16 52 -19z m-450 -46 c8 -7 13 -26 12 -43 -1 -17 1 -41 5 -54 5 -15 2 -31
-8 -47 -13 -20 -25 -25 -61 -25 l-45 0 0 88 c0 49 3 92 8 96 10 10 70 0 89
-15z m205 -8 c24 -22 32 -37 32 -63 0 -45 -27 -87 -65 -100 -34 -12 -38 -35
-6 -41 l22 -4 -22 -8 c-13 -4 -23 -16 -23 -26 0 -18 19 -19 615 -19 l616 0 -3
-92 -3 -93 -742 -3 -743 -2 0 95 0 95 120 0 c112 0 120 1 120 20 0 10 -8 24
-17 29 -17 10 -17 10 0 11 25 0 21 29 -7 40 -61 23 -76 111 -27 161 40 39 89
40 133 0z m546 13 c17 -12 20 -19 12 -29 -9 -11 -16 -10 -40 2 -30 15 -64 6
-82 -21 -28 -42 11 -102 59 -93 59 12 66 12 70 0 5 -15 -48 -43 -83 -43 -37 0
-94 59 -94 97 1 80 94 132 158 87z m582 6 c52 -28 44 -106 -11 -117 -24 -4
-29 -11 -29 -34 0 -22 -5 -29 -20 -29 -18 0 -20 7 -20 88 0 49 3 92 7 95 10
10 52 8 73 -3z m-240 -60 l24 -51 29 58 30 58 32 -90 c18 -50 31 -93 29 -97
-10 -17 -34 7 -50 49 l-18 45 -23 -46 c-13 -25 -25 -46 -28 -46 -3 0 -15 21
-28 47 l-24 46 -18 -46 c-12 -32 -23 -47 -36 -47 -17 0 -15 8 13 89 18 49 35
88 38 86 3 -2 17 -27 30 -55z"/>
<path d="M445 908 c-34 -18 -45 -40 -45 -90 l0 -48 75 0 75 0 0 44 c0 58 -7
74 -41 91 -33 18 -38 18 -64 3z"/>
<path d="M177 882 c-11 -12 -17 -36 -17 -66 l0 -47 63 3 62 3 -1 49 c0 35 -5
52 -19 62 -26 20 -69 17 -88 -4z"/>
</g>
</svg>
