<?xml version="1.0" standalone="no"?>
<!DOCTYPE svg PUBLIC "-//W3C//DTD SVG 20010904//EN"
 "http://www.w3.org/TR/2001/REC-SVG-20010904/DTD/svg10.dtd">
<svg version="1.0" xmlns="http://www.w3.org/2000/svg"
 width="375.000000pt" height="134.000000pt" viewBox="0 0 375.000000 134.000000"
 preserveAspectRatio="xMidYMid meet">
<metadata>
Created by potrace 1.16, written by Peter Selinger 2001-2019
</metadata>
<g transform="translate(0.000000,134.000000) scale(0.100000,-0.100000)"
fill="#000000" stroke="none">
<path d="M0 1110 c0 -177 3 -230 13 -230 6 0 20 -13 29 -30 30 -53 113 -52
132 2 13 37 -5 74 -46 96 -18 9 -50 33 -70 53 -47 46 -52 96 -13 134 47 48
155 20 155 -41 0 -31 -24 -31 -38 1 -9 20 -19 25 -46 25 -40 0 -59 -19 -54
-57 2 -22 16 -35 63 -64 33 -20 68 -49 77 -65 65 -107 -59 -212 -166 -139
l-36 24 0 -409 0 -410 1875 0 1875 0 0 670 0 670 -1875 0 -1875 0 0 -230z
m674 27 c70 -92 109 -232 108 -388 l0 -117 49 -48 49 -48 0 -78 c0 -95 -6 -97
-91 -32 -33 25 -62 45 -63 43 -2 -2 -13 -23 -25 -47 l-22 -43 -57 3 c-56 3
-57 3 -77 46 -11 23 -23 42 -28 42 -5 0 -34 -18 -64 -40 -31 -22 -62 -40 -70
-40 -10 0 -13 20 -13 79 l0 79 54 47 55 47 0 101 c1 110 17 188 57 277 35 77
84 150 100 150 7 0 24 -15 38 -33z m756 -136 c5 -146 6 -154 29 -172 36 -29
95 -29 126 2 18 17 21 36 25 172 4 126 8 152 20 152 24 0 27 -272 4 -321 -43
-90 -181 -86 -229 6 -11 22 -15 65 -15 168 0 76 3 142 7 146 21 21 28 -11 33
-153z m-960 135 c0 -11 -14 -16 -47 -18 l-48 -3 -5 -168 c-3 -101 -9 -167 -15
-167 -6 0 -12 66 -15 167 l-5 168 -47 3 c-34 2 -48 7 -48 18 0 11 21 14 115
14 94 0 115 -3 115 -14z m579 -2 c13 -9 30 -32 38 -51 18 -45 4 -93 -39 -126
l-30 -24 35 -70 c23 -45 32 -74 27 -83 -13 -21 -31 -1 -70 79 -33 70 -35 71
-72 71 l-38 0 0 -81 c0 -60 -3 -80 -12 -77 -10 4 -14 53 -16 191 l-2 187 78 0
c55 0 84 -5 101 -16z m301 2 c0 -11 -14 -16 -47 -18 l-48 -3 -3 -173 c-2 -132
-5 -173 -15 -169 -9 2 -13 52 -17 173 l-5 169 -47 3 c-34 2 -48 7 -48 18 0 11
21 14 115 14 94 0 115 -3 115 -14z m551 -15 c23 -24 29 -38 29 -73 0 -76 -52
-118 -145 -118 l-45 0 0 -74 c0 -73 -13 -104 -31 -75 -10 16 -12 352 -2 362 3
4 42 7 85 7 75 0 81 -2 109 -29z m-357 -475 c123 -93 109 -268 -27 -337 -61
-32 -153 -24 -204 17 -117 93 -106 254 22 336 24 15 44 18 101 16 60 -3 77 -8
108 -32z m414 20 c37 -19 89 -75 101 -109 27 -72 4 -162 -56 -219 -37 -35 -73
-48 -134 -48 -91 0 -163 56 -190 148 -23 77 20 177 95 223 38 23 144 26 184 5z
m653 -8 c23 -13 39 -29 39 -40 0 -24 -15 -23 -52 3 -40 29 -121 31 -168 3 -42
-23 -80 -93 -80 -144 0 -47 29 -100 70 -127 48 -33 134 -32 185 3 44 30 73 27
53 -6 -31 -49 -153 -76 -225 -49 -62 23 -122 109 -123 174 0 75 40 147 105
186 44 28 145 26 196 -3z m340 -171 c42 -95 74 -178 71 -185 -9 -24 -27 -6
-56 56 l-30 62 -83 0 -84 0 -29 -65 c-28 -63 -42 -76 -55 -55 -6 10 122 312
152 359 11 17 18 20 26 12 7 -7 46 -89 88 -184z m154 185 c6 -4 39 -72 74
-152 34 -80 66 -148 70 -153 4 -4 36 60 71 143 98 233 110 230 110 -25 0 -101
-4 -186 -9 -189 -24 -15 -33 27 -29 153 2 72 0 127 -3 123 -3 -4 -29 -63 -58
-132 -29 -69 -60 -132 -68 -140 -13 -13 -16 -13 -28 4 -8 10 -38 75 -67 145
l-53 126 -5 -140 c-4 -116 -8 -140 -20 -140 -13 0 -15 28 -18 180 -3 206 0
221 33 197z m-1980 -26 c34 -34 42 -73 22 -108 -16 -28 -16 -29 16 -58 27 -24
32 -35 32 -75 0 -40 -5 -51 -33 -76 -30 -27 -38 -29 -112 -29 l-80 0 0 185 0
185 65 0 c56 0 69 -4 90 -24z m1175 9 c0 -11 -12 -15 -45 -15 l-45 0 -2 -172
c-3 -146 -5 -173 -18 -173 -13 0 -15 27 -18 173 l-2 172 -50 0 c-38 0 -50 4
-50 15 0 12 19 15 115 15 96 0 115 -3 115 -15z m1373 -5 c90 -71 27 -200 -98
-200 l-50 0 3 -65 c4 -64 -9 -102 -29 -89 -5 3 -9 88 -9 190 l0 184 79 0 c63
0 83 -4 104 -20z m-3007 -298 c25 -16 35 -52 25 -88 -13 -47 -59 -124 -74
-124 -20 0 -69 108 -71 152 0 29 5 44 19 54 20 15 82 19 101 6z"/>
<path d="M535 923 c-12 -33 -19 -86 -21 -173 l-3 -124 -56 -49 c-51 -45 -55
-52 -55 -93 0 -24 2 -44 5 -44 3 0 30 18 60 40 30 22 60 40 67 40 7 0 22 -24
33 -53 19 -49 22 -52 57 -55 37 -3 38 -2 62 52 14 31 28 56 32 56 4 0 33 -20
65 -45 31 -24 59 -41 63 -38 3 3 6 22 6 42 0 29 -9 44 -52 88 l-52 52 -1 138
c-1 77 -7 155 -14 176 l-12 37 -84 0 -83 0 -17 -47z m154 -19 c12 -15 21 -34
21 -44 0 -10 -9 -29 -21 -44 -41 -52 -129 -21 -129 46 0 65 88 94 129 42z"/>
<path d="M904 1106 c-3 -7 -4 -40 -2 -72 l3 -59 39 -3 c21 -2 52 2 68 9 56 23
60 97 7 124 -36 19 -108 20 -115 1z"/>
<path d="M1748 1114 c-5 -4 -8 -38 -8 -76 l0 -68 49 0 c130 0 143 135 14 147
-26 3 -51 1 -55 -3z"/>
<path d="M1360 628 c-81 -41 -112 -136 -70 -218 23 -45 50 -67 103 -81 106
-28 213 76 192 188 -8 46 -68 110 -113 123 -52 14 -62 13 -112 -12z"/>
<path d="M1826 640 c-43 -13 -92 -66 -106 -114 -32 -116 75 -227 189 -196 144
39 165 230 31 298 -47 23 -67 26 -114 12z"/>
<path d="M1010 405 l0 -77 57 4 c62 5 93 30 93 73 0 43 -31 68 -93 73 l-57 4
0 -77z"/>
<path d="M3530 565 l0 -75 39 0 c56 0 90 15 102 47 22 57 -23 103 -101 103
l-40 0 0 -75z"/>
</g>
</svg>
