<?xml version="1.0" standalone="no"?>
<!DOCTYPE svg PUBLIC "-//W3C//DTD SVG 20010904//EN"
 "http://www.w3.org/TR/2001/REC-SVG-20010904/DTD/svg10.dtd">
<svg version="1.0" xmlns="http://www.w3.org/2000/svg"
 width="300.000000pt" height="168.000000pt" viewBox="0 0 300.000000 168.000000"
 preserveAspectRatio="xMidYMid meet">
<metadata>
Created by potrace 1.16, written by Peter Selinger 2001-2019
</metadata>
<g transform="translate(0.000000,168.000000) scale(0.100000,-0.100000)"
fill="#000000" stroke="none">
<path d="M2570 1384 c0 -3 27 -41 60 -83 l60 -78 0 -76 c0 -70 -2 -76 -22 -80
-13 -2 0 -4 27 -4 28 0 40 2 28 4 -21 4 -23 10 -23 80 l0 76 53 71 c29 39 57
77 61 84 6 9 -21 12 -118 12 -69 0 -126 -3 -126 -6z m230 -7 c0 -2 -24 -36
-53 -75 l-54 -71 -57 75 -57 74 110 0 c61 0 111 -1 111 -3z"/>
<path d="M1231 1339 c0 -9 -10 -19 -21 -22 -18 -5 -20 -14 -20 -116 l0 -111
45 0 45 0 0 115 c0 107 -1 115 -19 115 -11 0 -22 8 -24 18 -4 14 -5 15 -6 1z"/>
<path d="M560 185 l0 -65 940 0 940 0 0 65 0 65 -940 0 -940 0 0 -65z"/>
</g>
</svg>
